<?xml version="1.0" encoding="utf-8"?>
<!-- Generator: Adobe Illustrator 19.0.0, SVG Export Plug-In . SVG Version: 6.00 Build 0)  -->
<svg version="1.1" id="Layer_1" xmlns="http://www.w3.org/2000/svg" xmlns:xlink="http://www.w3.org/1999/xlink" x="0px" y="0px"
	 viewBox="0 0 739.4 90.2" style="enable-background:new 0 0 739.4 90.2;" xml:space="preserve">
<style type="text/css">
	.st0{fill:#FFFFFF;}
</style>
<g id="XMLID_2_">
	<path id="XMLID_5_" class="st0" d="M45.5,85.1c-1-1.9-3.9-10.1-4.5-16.5c-0.4-3.6-0.6-7.2-0.7-10.8c0-1-0.1-2-0.1-3
		c-0.1-1.5,0-3,0-4.5c0-0.7,0-1.4,0-2.1v-0.6l-0.7-0.2c-0.1,0-3.9,1.8-5.4,3.6c-5,5.9-22.8,30.2-24.2,31.6c-1.5,1.6-2.5,2.6-4.3,2.6
		c-0.1,0-0.3,0-0.4-0.1c-1.4,0-1.9-0.4-2.8-1c-0.4-0.2-0.8-0.5-1.2-0.7C0.5,83,0.1,82.3,0,81.5c0-0.1,0.1-0.2,0.1-0.3
		c0.2-0.3,0.4-0.7,0.5-1C1,79.1,18.2,52.2,30,33.7C41.4,15.9,50.7,1.6,51.7,0.4c0.1-0.1,0.2-0.2,0.3-0.3c1,0.3,2,0.6,2.9,1.1
		c1.8,1,2.7,2.8,3.6,4.7c0.1,0.2,0.1,0.4,0.2,0.5c0.7,1.5,0.6,2.6-0.5,3.9c-0.9,1-6.4,8.5-11.4,15.1c-2.6,3.5-9.1,15.1-9.1,15.1
		c3.3-3.1,10.9-11,14.1-14.4c1.2-1.3,2.3-2.5,3.5-3.8c2.3-2.5,4.7-5.2,7.3-7.6c3.5-3.5,7.4-6.9,11.1-10.1c0.6-0.5,1.2-1,1.8-1.5
		c0.3-0.3,0.6-0.6,0.9-0.8C77.6,1.1,78.8,0,80.6,0c0,0,0.1,0,0.2,0h0.1c0.7,0.1,1.5,0.2,1.9,0.2c2.6,0.1,3.7,1.5,3.9,2.9
		c1,6.5-0.7,10.4-0.7,10.4c-1.2,2.7-2.6,5.5-4.4,8.8c-1.8,3.2-3.6,6.5-5.4,9.6L75.6,33c-0.8,1.4-4.1,5.3-7.9,9
		c-7.2,6.9-9.8,8.3-17.2,7.9l-0.7,0.2l0.1,0.7c0.3,5.8,1.7,13.2,4.2,21.8c2.1,7.5,4,12.8,4.1,12.9c0.3,0.8,0.3,1.4,0.1,1.7
		c-0.1,0.3-0.6,0.6-1.3,0.7c-0.1,0.1-0.3,0.1-0.5,0.2c-1,0.2-2.6,0.6-4.4,0.6C49,88.7,46.8,87.5,45.5,85.1z M54.1,39
		c2.2-1.9,4.5-3.9,6.6-6c1.6-1.7,3.2-3.4,4.5-5.4c1.9-2.7,3.5-5.6,5.1-8.5c1.4-2.4,2.5-5,3.7-7.5c-0.1-0.1-0.3-0.2-0.4-0.3
		c-10.8,10-20.7,21-30.4,32.3C43.9,43.4,51.6,41.2,54.1,39z"/>
	<path id="XMLID_8_" class="st0" d="M66.1,78c-1.5-2.2-2.2-4.7-2.6-7.3c-0.1-1.1,0.1-4.8,0.2-5.3c0.4-1.4,0.5-3,0.9-4.3
		c1.3-4.1,3.5-7.4,5.9-10.7c2.7-3.6,5.4-7.3,9.2-9.8c4.3-2.8,8.4-6,14.7-7.5c2.6-0.6,3.7,3.9,4.9,6.6c0.9,2.2,2,4.3,3,6.5
		c0,0.3,0,0.6,0.1,0.9c-0.2,0.7-1.7,6.6-5.1,12.6c-0.5,0.8-1.1,1.8-1.8,2.3c-2.6,1.7-8.1,4.5-12.4,1.5c-1.1-0.8-2-2.1-2.9-3.1
		C77.3,63.7,72,73.1,71,78c3.1,1.4,9.1-2.5,12.3-4.1c2.9-1.4,22.6-13.4,25.4-15.2c0.6-0.4,1.1-0.9,1.7-1.4l2-1.9
		c1.7-6.3,4.5-15.2,7.6-18.9c1.7-2,3.5-2.4,4-2.4c0.3,0,0.6,0,0.9,0.1c1.7,0.5,3.2,1.3,4.5,2.6c0,1-0.8,4.1-1.3,4.8
		c-4.3,5.7-5.7,17.4-6.2,19.8l-2.3,7.9c0.1,0,15.5-15.4,16.1-15.7V55c-0.4,1.1-16.8,17.8-17.1,18.5c-1.6,3.5-4.1,7-8.2,7.3
		c-0.1,0-11,0.2-15.2-10.9c-12.3,6.8-23.7,12.3-24.1,12.2C69,81.4,67.4,79.9,66.1,78z M95.4,45.6c-3.6,0.7-12.1,9.3-13.8,12.1
		c-1.3,1.9-1.5,1.8,0.7,2.5c2.2,0.7,4.1,0.5,6-1c2.1-1.6,3.4-4,4.9-6.2c1.3-2.1,2.1-4.4,2.6-6.9L95.4,45.6z M101.9,74.5
		c3.6,3.5,5.6,0.1,6.5-3.1c1-3.4,1.7-6.8,2.5-10.2V61c-4.3,2.6-9.2,5.4-13.9,8C98.6,70,100.6,73.4,101.9,74.5z"/>
	<path id="XMLID_12_" class="st0" d="M160.5,33.6c-0.6,0.1-1.5,0.4-1.8,0.9c-1.5,2.1-13.1,21.1-14.9,24.4c-0.9,1.7-4.5,8.9-5.2,10.7
		c-1.8,4.5-2.1,4.5-1.7,7.4c9.3-3.6,19.7-16.5,22.3-20.7c0.9-1.5,2.1-2.7,3.2-3.9c0.4-0.4,1.2-0.3,1.8-0.5c0.1,0.8-4.9,8.4-6.6,10.4
		c-0.6,0.7-8,8.3-10.2,10.6c-0.1,0.1-0.3,0.3-0.4,0.4c-2.2,2.1-8.4,6.7-9.2,7.1c-7.1,4.1-9.9-3.3-10.1-8.1c0-0.4,0-0.8,0.1-1.2
		c0.3-1.7,1.1-7.1,2.1-9.3c3.8-7.9,7.9-15.7,12-23.4c1.9-3.6,0.3-0.4,2.5-3.9c0.3-0.5-0.1-1.2-0.6-1.1c-1.7,0.2-7.9,0.3-7.1-3.7
		c1.9-0.2,8-0.7,9.9-0.9c0.9-0.1,1.5-0.4,2-1.3c3-4.5,9.8-15.7,12.8-20.2c1.3-2,2.8-4,4.2-6c0.8-0.1,1.3-0.2,2.1-0.4
		c0.9,0.6,1.7,1.3,2.5,1.8c2.2,1.4,3.7,5.4,2.7,7.4c-2.1,3.9-8.2,14.5-10.5,18.6c2.1,0,5.7,0,7.6-0.2c2.6-0.2,4.8-0.1,5.8,3v2.1
		C172.8,33.8,161.7,33.5,160.5,33.6z"/>
	<path id="XMLID_14_" class="st0" d="M174,39c2.3-1.8,4.6-3.7,7.3-4.6c1.4-0.4,2.9-1,4.1-0.2c0.8,0.5,3.4,3.9,1.6,6.2
		c-1.4,1.7-10,11.1-12.9,14.2c-1.5,1.7-5.6,6.7-6.1,7.4c-2.5,3.5-4.2,7.4-5.3,11.5c-0.1,0.5,0.4,0.8,0.9,0.6
		c0.4-0.2,0.9-0.4,1.2-0.7c3.3-2.8,20.6-27.1,22-29c1.8-2.4,3.8-4.7,5.6-7.1c0.9-1.2,4.1-2.1,7.3-0.3c1.2,0.6,2.2,1.7,3,2.8
		c0.9,1.3,1.3,2.8,0.6,4.4c-1.4,2.9-2.7,5.7-4.1,8.5c-1.7,3.5-3.7,7-5.2,10.6c-1.5,3.3-6,16.3-5.9,17c1.2-0.7,2.4-1.2,3.2-1.9
		c1.1-1.1,20.8-24.7,22.5-26.6c-0.2,3.1-20.3,28.7-22.7,30c-3.2,1.6-7.3,0.5-8.2-0.2c-3-2.6-4.2-6.1-3.9-10c0.3-2.5,1-5,1.8-7.4
		c1.8-5.6,8-16.7,8.4-17.4c-0.5,0.1-22.2,28.9-25.8,31.6c-1,0.8-2.3,1.6-3.6,1.8c-2.5,0.2-4.2-1.2-5.3-3.4
		c-0.3-0.7-2.8-7.6,2.3-18.2C162.2,47.2,171.8,40.7,174,39z"/>
	<path id="XMLID_16_" class="st0" d="M226.5,44.6c-1.1,2.1-14.2,28-14.9,29.9c0.6-0.1,0.8-0.1,0.9-0.2c2.9-2.1,11.9-12.3,14.1-14.6
		c2.2-2.5,4.6-4.9,6.9-7.3c0.4-0.4,0.6-0.9,0.9-1.3c0.7-1,1.3-2.1,2-3.1c1.8-2.6,3.6-5.3,5.5-7.8c0.5-0.8,1.4-1.7,2.1-1.8
		c2.4-0.3,4.7,0.5,6.4,2.2c1.2,1.3,2.9,2.6,2.1,4.8c-0.4,1.3-15.2,23.2-16.4,32.1c0,0.3-0.1,0.6-0.1,1c0.3-0.1,0.8-0.1,1-0.3
		c2-1.7,10.5-10.3,11.8-11.7c2.1-2.5,4.4-4.9,6.6-7.3c0.6-0.6,1.3-1.6,2.3-0.7c0.1,0.6,0.1,1,0.1,1.5c-0.9,1-1.8,2.1-2.7,3.1
		c-1.8,1.8-3.6,3.6-5.4,5.4c-1.3,1.3-8.7,8.9-10.6,10.6c-0.9,0.8-1.9,1.5-2.9,2.2c-1.1,0.7-2.6,0.8-3.8,0.2c-2.2-1.2-5.2-3.2-6.2-5
		c-0.4-0.7-0.2-3.6,0-4.4c1-3.5,2.1-7,3.2-10.6c-0.2,0.1-0.4,0.2-0.7,0.4c-1.1,0.8-6.1,6.7-7.8,8.4c-0.4,0.5-6.3,5.9-8.8,8.1
		c-0.4,0.4-0.9,0.6-1.3,0.9c-1.4,0.9-2.9,1.4-4.6,0.7c-2.1-0.9-3.5-2.2-4-4.5c-0.1-0.4-0.3-0.7-0.5-1.1c0-1.1,0-2.2,0-3.3
		c0.1-0.2,3.6-10,5.6-14.5c2.9-6.7,6.7-12.9,10.8-18.9c0.9-1.4,1.6-2.9,3.6-2.7c0.1,0,4.5,1.4,6,3.9C228.8,41,226.6,44.4,226.5,44.6
		z"/>
	<path id="XMLID_18_" class="st0" d="M284,62.9c-0.3,0.5-0.7,1-1.1,1.5c-0.3,0.5,0.3,1.3,0.9,1c1.8-0.9,3.5-2.3,4.4-3.1
		c2.3-2,9.5-8.1,11.6-10.4c0-0.1,0-0.1,0-0.1c0.5-0.6,1.5,0.2,1,0.9c-1.2,1.7-8.5,8.3-9.6,9.6c-1.4,1.7-6.1,5.5-11.5,6.1
		c-1.7,0.3-3.1-0.5-3.4-0.7c-1.9-1.4-2.4-3.8-1.5-6c1.1-2.8,2.6-5.4,4-8c2.2-3.9,4.7-7.7,7-11.5c0.1-0.1,0.1-0.2,0.2-0.3
		c0.2-0.6-0.4-1.3-1-0.9c-0.6,0.4-1.2,0.8-1.8,1.2c-3.4,2.8-6.7,5.9-10.3,8.5c-4.3,3.2-16.3,23.8-19.2,29c-0.6,1.1-3.6,2-4.6,2.1
		c-0.1,0-0.2,0-0.3-0.1c-0.1,0-0.1,0-0.2,0c-0.6-0.1-1.5-0.1-2.4-0.2c-2.4-0.1-3.8-2.6-2.7-4.9v-0.1c2.4-4.8,15.5-28.6,19.3-34.7
		c1.4-2.4,3.1-4.9,4.8-7.2c0.2-0.2,0.4-0.3,0.7-0.2c0.7,0.2,2,0.6,2.1,0.7c1.6,1.1,6.5,3.8,4.8,9.4c0,0.1,0,0.1-0.1,0.1
		c-0.2,0.7,0.6,1.2,1.1,0.8c0.9-0.8,1.8-1.5,2.3-1.9c3.1-2.1,6.1-4.3,9-6.5c1.5-1,2.9-0.8,4.1-0.3c1.8,0.7,3.3,1.8,4.3,3.4
		c0,0.8,0.1,1.5,0.1,2.4c-0.7,1.4-1.2,2.9-2,4.3c-1.8,3-3.5,6.1-5.3,9.1C287.2,58.3,285.6,60.6,284,62.9z"/>
	<path id="XMLID_20_" class="st0" d="M309.8,39c2.3-1.8,4.6-3.7,7.3-4.6c1.4-0.4,2.9-1,4.1-0.2c0.8,0.5,3.4,3.9,1.6,6.2
		c-1.4,1.7-10,11.1-12.9,14.2c-1.5,1.7-5.6,6.7-6.1,7.4c-2.5,3.5-4.2,7.4-5.3,11.5c-0.1,0.5,0.4,0.8,0.9,0.6
		c0.4-0.2,0.9-0.4,1.2-0.7c3.3-2.8,20.6-27.1,22-29c1.8-2.4,3.8-4.7,5.6-7.1c0.9-1.2,4.1-2.1,7.3-0.3c1.2,0.6,2.2,1.7,3,2.8
		c0.9,1.3,1.3,2.8,0.6,4.4c-1.4,2.9-2.7,5.7-4.1,8.5c-1.7,3.5-3.7,7-5.2,10.6c-1.5,3.3-6,16.3-5.9,17c1.2-0.7,2.4-1.2,3.2-1.9
		c1.1-1.1,20.8-24.7,22.5-26.6c-0.2,3.1-20.3,28.7-22.7,30c-3.2,1.6-7.3,0.5-8.2-0.2c-3-2.6-4.2-6.1-3.9-10c0.3-2.5,1-5,1.8-7.4
		c1.8-5.6,8-16.7,8.4-17.4c-0.5,0.1-22.2,28.9-25.8,31.6c-1,0.8-2.3,1.6-3.6,1.8c-2.5,0.2-4.2-1.2-5.3-3.4
		c-0.3-0.7-2.8-7.6,2.3-18.2C298,47.2,307.6,40.7,309.8,39z"/>
	<path id="XMLID_22_" class="st0" d="M406.1,57v1.8c-0.2,0.2-0.7,0.4-0.7,0.7c-1,2.9-21.5,18.4-23.3,19.5c-2.6,1.5-5.2,3.1-7.8,4.6
		c-0.6,0.4-1.4,0.5-2.1,0.3c-1.8-0.5-5.1-1.7-5.8-2.7c-2.6-3.5-2.2-7.6-0.6-11.3c2.6-5.8,5.6-11.4,8.5-17.1c1-2,2.1-3.9,3.1-5.9
		c-0.1-0.1-0.2-0.2-0.3-0.4c-0.4,0.3-0.9,0.4-1.2,0.8c-0.6,0.7-16.3,17.7-19.3,21.1c-0.9,1-11,14.4-12.3,13.9
		c-2.8-1.1-4.9-3-6.2-5.7c-0.4-1-0.8-2.3-0.5-3.3c1.5-5.5,16.5-34.6,19.3-36.8c0.6-0.5,0.8-1.4,1.2-2.1h1.3c2.2,1.3,4.2,2.7,5.5,5
		c0.5,0.9,0.7,1.8,0.2,2.8c-0.9,1.6-1.5,3.4-2.3,5c-1.5,3.1-3.1,6.1-4.6,9.1c-0.9,1.7-1.6,3.4-2.3,5.1c0.6,0,0.8-0.2,1-0.4
		c3.4-3.3,6.8-6.6,10-10c2.9-3,6.3-5.4,9-8.6c1.6-1.9,3.7-3.3,5.6-5c0.9-0.8,1.8-1.7,2.8-2.2c1.2-0.6,2.4-0.4,3.7,0.2
		c2.1,0.8,4.1,1.6,5.1,3.9c0.1,0.2,0.4,0.3,0.6,0.5V41c-0.7,1.4-12.6,27.3-18.7,38.4c23.7-12,28.9-23.8,30.3-25.1
		C405.6,55.4,405.9,56.2,406.1,57z"/>
	<path id="XMLID_24_" class="st0" d="M423.5,33.6c-0.6,0.1-1.5,0.4-1.8,0.9c-1.5,2.1-17.2,29.7-19,33c-0.9,1.7-4.5,8.9-5.2,10.7
		c-1.8,4.5-2.1,4.5-1.7,7.4l0.9,3.4c-7.1,4.1-9.9-3.3-10.1-8.1c0-0.4,0-0.8,0.1-1.2c0.3-1.7,1.1-7.1,2.1-9.3
		c3.8-7.9,12-24.3,16.1-32c1.9-3.6,0.3-0.4,2.5-3.9c0.3-0.5-0.1-1.2-0.6-1.1c-1.7,0.2-7.9,0.3-7.1-3.7c1.9-0.2,8-0.7,9.9-0.9
		c0.9-0.1,1.5-0.4,2-1.3c3-4.5,9.8-15.7,12.8-20.2c1.3-2,2.8-4,4.2-6c0.8-0.1,1.3-0.2,2.1-0.4c0.9,0.6,1.7,1.3,2.5,1.8
		c2.2,1.4,3.7,5.4,2.7,7.4c-2.1,3.9-8.2,14.5-10.5,18.6c2.1,0,5.7,0,7.6-0.2c2.6-0.2,4.8-0.1,5.8,3v2.1
		C435.8,33.8,424.7,33.5,423.5,33.6z"/>
	<path id="XMLID_26_" class="st0" d="M479,85.1c-1-1.9-3.9-10.1-4.5-16.5c-0.4-3.6-0.6-7.2-0.7-10.8c0-1-0.1-2-0.1-3
		c-0.1-1.5,0-3,0-4.5c0-0.7,0-1.4,0-2.1v-0.6l-0.7-0.2c-0.1,0-3.9,1.8-5.4,3.6c-5,5.9-22.8,30.2-24.2,31.6c-1.5,1.6-2.5,2.6-4.3,2.6
		c-0.1,0-0.3,0-0.4-0.1c-1.4,0-1.9-0.4-2.8-1c-0.4-0.2-0.8-0.5-1.2-0.7c-0.7-0.4-1.1-1.1-1.2-1.9c0-0.1,0.1-0.2,0.1-0.3
		c0.2-0.3,0.4-0.7,0.5-1c0.4-1.1,17.6-28,29.4-46.5c11.4-17.8,20.7-32.1,21.7-33.3c0.1-0.1,0.2-0.2,0.3-0.3c1,0.3,2,0.6,2.9,1.1
		c1.8,1,2.7,2.8,3.6,4.7c0.1,0.2,0.1,0.4,0.2,0.5c0.7,1.5,0.6,2.6-0.5,3.9c-0.9,1-6.4,8.5-11.4,15.1c-2.6,3.5-9.1,15.1-9.1,15.1
		c3.3-3.1,10.9-11,14.1-14.4c1.2-1.3,2.3-2.5,3.5-3.8c2.3-2.5,4.7-5.2,7.3-7.6c3.5-3.5,7.4-6.9,11.1-10.1c0.6-0.5,1.2-1,1.8-1.5
		c0.3-0.3,0.6-0.6,0.9-0.8c1.2-1.2,2.4-2.3,4.2-2.3c0,0,0.1,0,0.2,0h0.1c0.7,0.1,1.5,0.2,1.9,0.2c2.6,0.1,3.7,1.5,3.9,2.9
		c1,6.5-0.7,10.4-0.7,10.4c-1.2,2.7-2.6,5.5-4.4,8.8c-1.8,3.2-3.6,6.5-5.4,9.6l-0.6,1.1c-0.8,1.4-4.1,5.3-7.9,9
		c-7.2,6.9-9.8,8.3-17.2,7.9l-0.7,0.2l0.1,0.7c0.3,5.8,1.7,13.2,4.2,21.8c2.1,7.5,4,12.8,4.1,12.9c0.3,0.8,0.3,1.4,0.1,1.7
		c-0.1,0.3-0.6,0.6-1.3,0.7c-0.1,0.1-0.3,0.1-0.5,0.2c-1,0.2-2.6,0.6-4.4,0.6C482.5,88.7,480.3,87.5,479,85.1z M487.6,39
		c2.2-1.9,4.5-3.9,6.6-6c1.6-1.7,3.2-3.4,4.5-5.4c1.9-2.7,3.5-5.6,5.1-8.5c1.4-2.4,2.5-5,3.7-7.5c-0.1-0.1-0.3-0.2-0.4-0.3
		c-10.8,10-20.7,21-30.4,32.3C477.4,43.4,485.1,41.2,487.6,39z"/>
	<path id="XMLID_29_" class="st0" d="M529.7,37.7c0.9-0.4,1.9-1.3,3-1.3c2.5,0,5,0.5,7,2.3c1.6,1.4-0.3,10.2-0.9,12.1
		c-0.9,2.6-5.4,9.9-6.4,11.5c3.9,1.4,8.2-2.1,10.2-3.7c2.4-2,4.6-4.4,6.8-6.7c0.7-0.7,1.3-1.1,2.2-0.7v1.7c-0.1,0-0.2,0-0.2,0
		c-1.9,1.9-3.9,3.7-5.8,5.7c-1.7,1.9-7.8,6.5-14,6.2c-1.4-0.1-2.2,0.5-2.8,1.7c-0.2,0.3-3.9,4.8-5.6,6.7c-0.9,1-9.7,12.4-20.3,7.6
		c-4-1.7-6.5-6.9-5.8-13.7c0.4-4,2.3-7.5,4.2-10.9c3-5.2,6.4-10.1,10.8-14.3c2.5-2.3,5.3-4.4,8-6.6c0.5-0.4,1.8-1,2.9-1.4
		c1.1-0.4,2.5-0.2,3.4,0.7C527.5,35.6,528.6,36.7,529.7,37.7z M523.6,50.7c-0.8,1-1.6,2-2.4,3c-1.8,2.2-3.7,4.4-5.3,6.7
		c-2.1,3.2-4,6.6-5.8,9.9c-1.3,2.4-2.2,5-3.5,7.7c1,0.1,1.4,0.2,1.7,0.1c5.1-1.2,9.1-4.2,12.7-7.7c2-1.9,3.7-4.1,5.5-6.1
		c1-1.2,1.6-2.3,0.6-3.9c-0.7-1.4-1.3-2.9-1.6-4.4c-0.4-1.9-0.4-3.8-0.6-5.9C524.4,50.3,523.9,50.4,523.6,50.7z M533.9,52.6
		c1.2-2.6,1.9-5.5,2.9-8.2c0-0.1,0-0.1,0-0.2c0.7-2.2-1.7-4.1-3.7-3c-0.1,0.1-0.1,0.1-0.2,0.1c-0.6,0.3-1.4,0.7-1.6,1.3
		c-0.8,2.1-1.9,4.2-2.1,6.4c-0.3,3.1,0.3,10.3,0.5,10.4C531,57.4,532.9,54.7,533.9,52.6z"/>
	<path id="XMLID_33_" class="st0" d="M564.5,44.6c-1.1,2.1-14.2,28-14.9,29.9c0.6-0.1,0.8-0.1,0.9-0.2c2.9-2.1,11.9-12.3,14.1-14.6
		c2.2-2.5,4.6-4.9,6.9-7.3c0.4-0.4,0.6-0.9,0.9-1.3c0.7-1,1.3-2.1,2-3.1c1.8-2.6,3.6-5.3,5.5-7.8c0.5-0.8,1.4-1.7,2.1-1.8
		c2.4-0.3,4.7,0.5,6.4,2.2c1.2,1.3,2.9,2.6,2.1,4.8c-0.4,1.3-15.2,23.2-16.4,32.1c0,0.3-0.1,0.6-0.1,1c0.3-0.1,0.8-0.1,1-0.3
		c2-1.7,10.5-10.3,11.8-11.7c2.1-2.5,4.4-4.9,6.6-7.3c0.6-0.6,1.3-1.6,2.3-0.7c0.1,0.6,0.1,1,0.1,1.5c-0.9,1-1.8,2.1-2.7,3.1
		c-1.8,1.8-3.6,3.6-5.4,5.4c-1.3,1.3-8.7,8.9-10.6,10.6c-0.9,0.8-1.9,1.5-2.9,2.2c-1.1,0.7-2.6,0.8-3.8,0.2c-2.2-1.2-5.2-3.2-6.2-5
		c-0.4-0.7-0.2-3.6,0-4.4c1-3.5,2.1-7,3.2-10.6c-0.2,0.1-0.4,0.2-0.7,0.4c-1.1,0.8-6.1,6.7-7.8,8.4c-0.4,0.5-6.3,5.9-8.8,8.1
		c-0.4,0.4-0.9,0.6-1.3,0.9c-1.4,0.9-2.9,1.4-4.6,0.7c-2.1-0.9-3.5-2.2-4-4.5c-0.1-0.4-0.3-0.7-0.5-1.1c0-1.1,0-2.2,0-3.3
		c0.1-0.2,3.6-10,5.6-14.5c2.9-6.7,6.7-12.9,10.8-18.9c0.9-1.4,1.6-2.9,3.6-2.7c0.1,0,4.5,1.4,6,3.9C566.8,41,564.6,44.4,564.5,44.6
		z"/>
	<path id="XMLID_35_" class="st0" d="M633.6,12.1c-0.2,0.4-0.7,5.6-1.3,7.8c-0.6,1.9-1.7,3.4-2.7,5.1c-1.6,2.7-5.2,6.9-11.8,10
		c-7,12.3-14.5,25.5-17.3,30.6c0,0-4.8,9.8-4.7,13.3c6.1-1.9,18.7-17.1,21.9-20.7c0.4-0.5,0.9-0.7,1.5-1.2c-0.1,2.7-1.6,4.3-3,5.7
		c-4,4.5-14,14.1-14.7,14.7c-2.1,1.6-4.1,3.3-6.1,5h-2c-5,0-6-6.5-6.3-7.3c0,0-0.5-4,0-6.1c0.5-2.3,3.9-10,3.9-10
		c9.9-17.5,26.2-45.8,28.1-48.6c1.6-2.4,3.2-4.9,4.8-7.4c0.3-0.5,2.1-1,2.3-1c2.3,0,3.8,1.7,5.5,2.8c0.8,0.6,1,1.2,1.1,1.9V6.6
		L633.6,12.1z M631.2,11.5c-2.1,3.7-6.5,11.3-11.3,19.8C625.1,28.5,631.6,15.1,631.2,11.5z"/>
	<path id="XMLID_38_" class="st0" d="M614.5,78c-1.5-2.2-2.2-4.7-2.6-7.3c-0.1-1.1,0.1-4.8,0.2-5.3c0.4-1.4,0.5-3,0.9-4.3
		c1.3-4.1,3.5-7.4,5.9-10.7c2.7-3.6,5.4-7.3,9.2-9.8c4.3-2.8,8.4-6,14.7-7.5c2.6-0.6,3.7,3.9,4.9,6.6c0.9,2.2,2,4.3,3,6.5
		c0,0.3,0,0.6,0.1,0.9c-0.2,0.7-1.7,6.6-5.1,12.6c-0.5,0.8-1.1,1.8-1.8,2.3c-2.6,1.7-8.1,4.5-12.4,1.5c-1.1-0.8-2-2.1-2.9-3.1
		c-2.9,3.3-8.2,12.7-9.2,17.6c3.1,1.4,9.1-2.5,12.3-4.1c2.9-1.4,12.4-7.2,15.2-9c0.6-0.4,8.9-7,9.5-7.5c1.9-1.8,3.7-3.7,5.5-5.5
		c0.2,0.1,0.3,0.2,0.4,0.3c-0.1,0.3-0.2,0.6-0.2,0.9c0.1,3.4-1.8,5.2-4.2,6.6c-16.3,9.9-30.1,22.4-38.4,22.4
		C617.4,81.4,615.8,79.9,614.5,78z M643.8,45.6c-3.6,0.7-12.1,9.3-13.8,12.1c-1.3,1.9-1.5,1.8,0.7,2.5c2.2,0.7,4.1,0.5,6-1
		c2.1-1.6,3.4-4,4.9-6.2c1.3-2.1,2.1-4.4,2.6-6.9C644.1,45.9,643.9,45.8,643.8,45.6z"/>
	<path id="XMLID_41_" class="st0" d="M720.8,27c-0.4,2.3-2.6,7.1-9.6,7c0.2,0-5.2,0-5.2-0.1c-0.6,1.1-1,1.8-1.1,1.9
		c-1.5,2.1-12.6,19.9-14.4,23.2c-0.9,1.7-4.5,8.9-5.2,10.7c-1.8,4.5-2.1,4.5-1.7,7.4c9.3-3.6,19.7-16.5,22.3-20.7
		c0.9-1.5,2.1-2.7,3.2-3.9c0.4-0.4,1.2-0.3,1.8-0.5c0.1,0.8-4.9,8.4-6.6,10.4c-0.6,0.7-8,8.3-10.2,10.6l-0.4,0.4
		c-2.2,2.1-8.4,6.7-9.2,7.1c-7.1,4.1-9.9-3.3-10.1-8.1c0-0.4,0-0.8,0.1-1.2c0.1-0.8,0.4-2.7,0.8-4.6c-2.3,2.4-5,5.2-6.2,6.4
		l-0.4,0.4c-2.2,2.1-8.4,6.7-9.2,7.1c-7.1,4.1-9.9-3.3-10.1-8.1c0-0.4,0-0.8,0.1-1.2c0.3-1.7,1.1-7.1,2.1-9.3
		c3.8-7.9,7.9-15.7,12-23.4c1.8-3.4,2.7-4.4,2.7-4.5h-9.1c-2.1,0-1.6-0.1-3.7-0.2c-2.1-0.1,0-2.7,1.1-4.1c2.1-2.4,5.2-2.5,8.5-2.9
		c0.9-0.1,7.6,0.3,7.6,0.2c3.2-4.9,9.5-15.3,12.4-19.6c1.3-2,2.8-4,4.2-6c0.8-0.1,1.3-0.2,2.1-0.4c0.9,0.6,1.7,1.3,2.5,1.8
		c2.2,1.4,3.7,5.4,2.7,7.4c-1.8,3.4-6.6,11.8-9.4,16.6c3.6,0,7.1,0,10.7,0c3.2-5,9.4-15.1,12.2-19.4c1.3-2,2.8-4,4.2-6
		c0.8-0.1,1.3-0.2,2.1-0.4c0.9,0.6,1.7,1.3,2.5,1.8c2.2,1.4,3.7,5.4,2.7,7.4c-1.3,2.4-5.9,10.3-9.5,16.5l5.1-0.3l3.5-0.8
		C719.8,25.3,720.9,26.1,720.8,27z M691,33.8c-3.9,0-8.1-0.1-8.8-0.1c-0.6,0.1-1.5,0.4-1.8,0.9c-1.5,2.1-13.1,21.1-14.9,24.4
		c-0.9,1.7-4.5,8.9-5.2,10.7c-1.8,4.5-2.1,4.5-1.7,7.4c6.4-2.4,13.2-9.3,17.8-14.7c0.1-0.1,0.1-0.3,0.2-0.5
		c4.6-9.5,9.2-18.2,14.5-27.3C691.3,34.4,691.2,34,691,33.8z"/>
	<path id="XMLID_44_" class="st0" d="M703.1,78c-1.5-2.2-2.2-4.7-2.6-7.3c-0.1-1.1,0.1-4.8,0.2-5.3c0.4-1.4,0.5-3,0.9-4.3
		c1.3-4.1,3.5-7.4,5.9-10.7c2.7-3.6,5.4-7.3,9.2-9.8c4.3-2.8,8.4-6,14.7-7.5c2.6-0.6,3.7,3.9,4.9,6.6c0.9,2.2,2,4.3,3,6.5
		c0,0.3,0,0.6,0.1,0.9c-0.2,0.7-1.7,6.6-5.1,12.6c-0.5,0.8-1.1,1.8-1.8,2.3c-2.6,1.7-8.1,4.5-12.4,1.5c-1.1-0.8-2-2.1-2.9-3.1
		c-2.9,3.3-8.2,12.7-9.2,17.6c6.1,2.3,16.6-4.7,22.4-8.4c0.6-0.4,1.1-0.9,1.7-1.4c1.9-1.8,3.7-3.7,5.5-5.5c0.2,0.1,0.3,0.2,0.4,0.3
		c-0.1,0.3-0.2,0.6-0.2,0.9c0.1,3.4-1.5,5.8-3.9,7.2c-16.3,9.9-25.2,11.2-25.8,11C706,81.4,704.4,79.9,703.1,78z M732.4,45.6
		c-3.6,0.7-12.1,9.3-13.8,12.1c-1.3,1.9-1.5,1.8,0.7,2.5c2.2,0.7,4.1,0.5,6-1c2.1-1.6,3.4-4,4.9-6.2c1.3-2.1,2.1-4.4,2.6-6.9
		C732.7,45.9,732.5,45.8,732.4,45.6z"/>
</g>
</svg>
